# xmcd CD database file
#
# Track frame offsets:
#	150
#	13751
#	25605
#	39819
#	52336
#	63235
#	76633
#	89353
#	103595
#	115073
#	127447
#	139629
#	148794
#
# Disc length: 2215 seconds
#
# Revision: 0
# Processed by: cddbd v1.5.1PL2 Copyright (c) Steve Scherf et al.
# Submitted via: CDex 1.51
#
DISCID=ab08a50d
DTITLE=Hoyle Brothers - One More Draw
DYEAR=2006
DGENRE=Country
TTITLE0=Crazy That's
TTITLE1=Gotta Get Up
TTITLE2=Oceans Away
TTITLE3=I'm Walking Slow (And Thinkin' Bout Her)
TTITLE4=Same Old Saw
TTITLE5=Bottom Of This
TTITLE6=Hoyle Shuffle
TTITLE7=Not For Nothin'
TTITLE8=In Here
TTITLE9=That's All You Got?
TTITLE10=Friday
TTITLE11=Big Dumb John
TTITLE12=Try One More Time
EXTD=YEAR: 2006
EXTT0=
EXTT1=
EXTT2=
EXTT3=
EXTT4=
EXTT5=
EXTT6=
EXTT7=
EXTT8=
EXTT9=
EXTT10=
EXTT11=
EXTT12=
PLAYORDER=
